# xmcd
#
# Track frame offsets: 
#        150
#        17540
#        34762
#        61227
#        80090
#        96742
#        112012
#        131397
#        146340
#        164152
#        176960
#        191175
#
# Disc length: 2700 seconds
#
# Revision: 0
# Processed by: cddbd v1.4PL0 Copyright (c) Steve Scherf et al.
# Submitted via: ExactAudioCopy v0.95a3
#
DISCID=b10a8a0c
DTITLE=Alex Maryol - They Call Me Lefty
DYEAR=1999
DGENRE=Blues
TTITLE0=Keep On Movin'
TTITLE1=Nine Weeks
TTITLE2=Take these Blues Away
TTITLE3=Clarksdale
TTITLE4=Ramblin' Man's Blues
TTITLE5=Thinkin' About You
TTITLE6=Ball and Chain
TTITLE7=Don't Say You Do
TTITLE8=Prayer Song
TTITLE9=Mista Blues
TTITLE10=Lonely For You Baby
TTITLE11=Sinner's Blues
EXTD=
EXTT0=
EXTT1=
EXTT2=
EXTT3=
EXTT4=
EXTT5=
EXTT6=
EXTT7=
EXTT8=
EXTT9=
EXTT10=
EXTT11=
PLAYORDER=
